<svg xmlns="http://www.w3.org/2000/svg" xmlns:xlink="http://www.w3.org/1999/xlink" width="800" zoomAndPan="magnify" viewBox="0 0 600 299.999988" height="400" preserveAspectRatio="xMidYMid meet" version="1.0"><defs><g/><clipPath id="9e50b398ba"><path d="M 483 97 L 585 97 L 585 200 L 483 200 Z M 483 97 " clip-rule="nonzero"/></clipPath><clipPath id="2120b82f8e"><path d="M 471.25 113.671875 L 568.621094 85.921875 L 596.375 183.292969 L 499.003906 211.046875 Z M 471.25 113.671875 " clip-rule="nonzero"/></clipPath><clipPath id="6ebcba417a"><path d="M 471.25 113.671875 L 568.621094 85.921875 L 596.375 183.292969 L 499.003906 211.046875 Z M 471.25 113.671875 " clip-rule="nonzero"/></clipPath><clipPath id="88232c148f"><path d="M 493 122 L 576 122 L 576 173 L 493 173 Z M 493 122 " clip-rule="nonzero"/></clipPath><clipPath id="e0936fa084"><path d="M 489.800781 140.945312 L 569.140625 118.332031 L 579.214844 153.675781 L 499.875 176.289062 Z M 489.800781 140.945312 " clip-rule="nonzero"/></clipPath><clipPath id="0b5b5264b7"><path d="M 505 129 L 564 129 L 564 166 L 505 166 Z M 505 129 " clip-rule="nonzero"/></clipPath><clipPath id="d25be49cfe"><path d="M 524.5 111.5625 L 570.378906 137.089844 L 544.851562 182.964844 L 498.976562 157.441406 Z M 524.5 111.5625 " clip-rule="nonzero"/></clipPath><clipPath id="1ce2c09e5e"><path d="M 524.5 111.5625 L 570.378906 137.089844 L 544.851562 182.964844 L 498.976562 157.441406 Z M 524.5 111.5625 " clip-rule="nonzero"/></clipPath></defs><rect x="-60" width="720" fill="#ffffff" y="-29.999999" height="359.999986" fill-opacity="1"/><rect x="-60" width="720" fill="#ffffff" y="-29.999999" height="359.999986" fill-opacity="1"/><rect x="-60" width="720" fill="#ffffff" y="-29.999999" height="359.999986" fill-opacity="1"/><g fill="#050a30" fill-opacity="1"><g transform="translate(16.181398, 199.277817)"><g><path d="M 10.039062 -60.03125 L 10.039062 80.308594 L 20.078125 80.308594 L 20.078125 -13.25 L 21.683594 -11.644531 C 29.515625 -3.816406 38.949219 0 49.992188 0 C 61.035156 0 70.472656 -3.816406 78.300781 -11.644531 C 86.132812 -19.476562 90.148438 -29.113281 90.148438 -40.355469 L 90.148438 -60.03125 C 90.148438 -71.273438 86.132812 -80.710938 78.300781 -88.542969 C 70.472656 -96.371094 61.035156 -100.386719 49.992188 -100.386719 C 38.949219 -100.386719 29.515625 -96.371094 21.683594 -88.542969 C 13.851562 -80.710938 10.039062 -71.273438 10.039062 -60.03125 Z M 20.078125 -40.355469 L 20.078125 -60.03125 C 20.078125 -62.640625 20.277344 -65.25 20.878906 -67.660156 C 22.285156 -74.285156 25.898438 -79.707031 31.320312 -83.921875 C 36.742188 -88.140625 42.964844 -90.347656 49.992188 -90.347656 C 57.019531 -90.347656 63.445312 -88.140625 68.867188 -83.921875 C 74.285156 -79.707031 77.898438 -74.285156 79.304688 -67.660156 C 79.90625 -65.25 80.109375 -62.640625 80.109375 -60.03125 L 80.109375 -40.355469 C 80.109375 -37.746094 79.90625 -35.136719 79.304688 -32.726562 C 77.898438 -26.101562 74.285156 -20.679688 68.867188 -16.464844 C 63.445312 -12.246094 57.019531 -10.039062 49.992188 -10.039062 C 42.964844 -10.039062 36.941406 -12.246094 31.523438 -16.464844 C 26.300781 -20.679688 22.488281 -26.101562 20.878906 -32.726562 C 20.277344 -35.136719 20.078125 -37.746094 20.078125 -40.355469 Z M 20.078125 -40.355469 "/></g></g></g><g fill="#050a30" fill-opacity="1"><g transform="translate(116.367082, 199.277817)"><g><path d="M 10.039062 0 L 20.078125 0 L 20.078125 -100.386719 L 10.039062 -100.386719 Z M 10.039062 -109.222656 L 20.078125 -109.222656 L 20.078125 -131.304688 L 10.039062 -131.304688 Z M 10.039062 -109.222656 "/></g></g></g><g fill="#050a30" fill-opacity="1"><g transform="translate(146.483022, 199.277817)"><g><path d="M 10.039062 -60.03125 L 10.039062 0 L 20.078125 0 L 20.078125 -60.03125 C 20.078125 -62.640625 20.277344 -65.25 20.878906 -67.660156 C 22.285156 -74.285156 25.898438 -79.707031 31.320312 -83.921875 C 36.742188 -88.140625 43.167969 -90.347656 50.195312 -90.347656 C 57.21875 -90.347656 63.242188 -88.140625 68.664062 -83.921875 C 73.882812 -79.707031 77.699219 -74.285156 79.304688 -67.660156 C 79.90625 -65.25 80.109375 -62.640625 80.109375 -60.03125 L 80.109375 0 L 90.148438 0 L 90.148438 -60.03125 C 90.148438 -71.273438 86.332031 -80.910156 78.503906 -88.742188 C 70.671875 -96.570312 61.234375 -100.386719 50.195312 -100.386719 C 39.152344 -100.386719 29.714844 -96.570312 21.882812 -88.742188 C 14.054688 -80.910156 10.039062 -71.273438 10.039062 -60.03125 Z M 10.039062 -60.03125 "/></g></g></g><g fill="#050a30" fill-opacity="1"><g transform="translate(246.668705, 199.277817)"><g><path d="M 49.992188 80.308594 C 61.035156 80.308594 70.472656 76.292969 78.300781 68.464844 C 86.132812 60.632812 90.148438 51.199219 90.148438 39.953125 L 90.148438 -60.03125 C 90.148438 -71.273438 86.332031 -80.910156 78.503906 -88.742188 C 70.671875 -96.570312 61.234375 -100.386719 50.195312 -100.386719 C 39.152344 -100.386719 29.714844 -96.570312 21.882812 -88.742188 C 14.054688 -80.910156 10.039062 -71.273438 10.039062 -60.03125 L 10.039062 -40.355469 C 10.039062 -29.113281 14.054688 -19.675781 21.882812 -11.84375 C 29.714844 -4.015625 39.152344 0 50.195312 0 C 61.234375 0 70.671875 -4.015625 78.503906 -11.84375 L 80.109375 -13.453125 L 80.109375 39.953125 C 80.109375 42.5625 79.90625 45.175781 79.304688 47.582031 C 77.898438 54.207031 74.285156 59.628906 68.867188 63.847656 C 63.445312 68.0625 57.019531 70.269531 49.992188 70.269531 C 42.964844 70.269531 36.742188 68.0625 31.320312 63.847656 C 25.898438 59.628906 22.285156 54.207031 20.878906 47.582031 C 20.277344 45.175781 20.078125 42.5625 20.078125 39.953125 L 20.078125 17.867188 L 10.039062 17.867188 L 10.039062 39.953125 C 10.039062 51.199219 13.851562 60.632812 21.683594 68.464844 C 29.515625 76.292969 38.949219 80.308594 49.992188 80.308594 Z M 20.078125 -40.355469 L 20.078125 -60.03125 C 20.078125 -62.640625 20.277344 -65.25 20.878906 -67.660156 C 22.285156 -74.285156 25.898438 -79.707031 31.320312 -83.921875 C 36.742188 -88.140625 43.167969 -90.347656 50.195312 -90.347656 C 57.21875 -90.347656 63.242188 -88.140625 68.664062 -83.921875 C 73.882812 -79.707031 77.699219 -74.285156 79.304688 -67.660156 C 79.90625 -65.25 80.109375 -62.640625 80.109375 -60.03125 L 80.109375 -40.355469 C 80.109375 -37.746094 79.90625 -35.136719 79.304688 -32.726562 C 77.898438 -26.101562 74.285156 -20.679688 68.867188 -16.464844 C 63.445312 -12.246094 57.21875 -10.039062 50.195312 -10.039062 C 43.167969 -10.039062 36.742188 -12.246094 31.320312 -16.464844 C 25.898438 -20.679688 22.285156 -26.101562 20.878906 -32.726562 C 20.277344 -35.136719 20.078125 -37.746094 20.078125 -40.355469 Z M 20.078125 -40.355469 "/></g></g></g><g fill="#050a30" fill-opacity="1"><g transform="translate(346.854389, 199.277817)"><g><path d="M 50.195312 0 C 61.234375 0 70.671875 -4.015625 78.503906 -11.84375 L 80.109375 -13.453125 L 80.109375 0 L 90.148438 0 L 90.148438 -60.03125 C 90.148438 -71.273438 86.332031 -80.910156 78.503906 -88.742188 C 70.671875 -96.570312 61.234375 -100.386719 50.195312 -100.386719 C 39.152344 -100.386719 29.714844 -96.570312 21.882812 -88.742188 C 14.054688 -80.910156 10.039062 -71.273438 10.039062 -60.03125 L 10.039062 -40.355469 C 10.039062 -29.113281 14.054688 -19.675781 21.882812 -11.84375 C 29.714844 -4.015625 39.152344 0 50.195312 0 Z M 20.078125 -40.355469 L 20.078125 -60.03125 C 20.078125 -62.640625 20.277344 -65.25 20.878906 -67.660156 C 22.285156 -74.285156 25.898438 -79.707031 31.320312 -83.921875 C 36.742188 -88.140625 43.167969 -90.347656 50.195312 -90.347656 C 57.21875 -90.347656 63.242188 -88.140625 68.664062 -83.921875 C 73.882812 -79.707031 77.699219 -74.285156 79.304688 -67.660156 C 79.90625 -65.25 80.109375 -62.640625 80.109375 -60.03125 L 80.109375 -40.355469 C 80.109375 -37.746094 79.90625 -35.136719 79.304688 -32.726562 C 77.898438 -26.101562 74.285156 -20.679688 68.867188 -16.464844 C 63.445312 -12.246094 57.21875 -10.039062 50.195312 -10.039062 C 43.167969 -10.039062 36.742188 -12.246094 31.320312 -16.464844 C 25.898438 -20.679688 22.285156 -26.101562 20.878906 -32.726562 C 20.277344 -35.136719 20.078125 -37.746094 20.078125 -40.355469 Z M 20.078125 -40.355469 "/></g></g></g><g fill="#050a30" fill-opacity="1"><g transform="translate(447.040072, 199.277817)"><g><path d="M 10.039062 0 L 20.078125 0 L 20.078125 -180.695312 L 10.039062 -180.695312 Z M 10.039062 0 "/></g></g></g><g clip-path="url(#9e50b398ba)"><g clip-path="url(#2120b82f8e)"><g clip-path="url(#6ebcba417a)"><path fill="#050a30" d="M 564.476562 185.011719 C 566.511719 182.175781 568.234375 178.9375 569.601562 175.339844 C 570.324219 173.421875 570.933594 171.441406 571.425781 169.410156 C 572.890625 167.921875 574.253906 166.359375 575.5 164.734375 C 577.839844 161.675781 579.683594 158.503906 581.019531 155.28125 C 579.335938 166.851562 573.421875 177.480469 564.476562 185.011719 Z M 497.28125 179.148438 C 500.117188 181.179688 503.359375 182.90625 506.957031 184.269531 C 508.875 184.996094 510.855469 185.601562 512.886719 186.097656 C 514.375 187.5625 515.933594 188.925781 517.5625 190.167969 C 520.617188 192.507812 523.792969 194.351562 527.015625 195.691406 C 515.441406 194.007812 504.816406 188.09375 497.28125 179.148438 Z M 503.148438 111.953125 C 501.113281 114.789062 499.390625 118.027344 498.027344 121.628906 C 497.300781 123.542969 496.691406 125.523438 496.199219 127.554688 C 494.734375 129.042969 493.371094 130.605469 492.125 132.230469 C 489.785156 135.289062 487.941406 138.460938 486.605469 141.683594 C 488.289062 130.113281 494.203125 119.484375 503.148438 111.953125 Z M 570.34375 117.820312 C 567.507812 115.785156 564.269531 114.058594 560.667969 112.695312 C 558.753906 111.96875 556.769531 111.363281 554.742188 110.871094 C 553.25 109.402344 551.691406 108.042969 550.0625 106.796875 C 547.007812 104.457031 543.835938 102.613281 540.609375 101.277344 C 552.183594 102.960938 562.8125 108.871094 570.34375 117.820312 Z M 572.691406 150.003906 C 576.347656 147.335938 579.03125 144.6875 580.679688 142.152344 C 580.816406 149.644531 577.824219 157.210938 572.46875 163.847656 C 573.070312 159.371094 573.148438 154.714844 572.691406 150.003906 Z M 555.746094 177.347656 C 555.851562 172.089844 555.378906 166.179688 554.367188 159.921875 C 560.21875 157.484375 565.492188 154.769531 569.90625 151.910156 C 570.289062 157.519531 569.878906 162.933594 568.757812 167.925781 C 565.105469 171.511719 560.71875 174.71875 555.746094 177.347656 Z M 555.589844 180.722656 C 559.839844 178.625 563.757812 176.105469 567.25 173.230469 C 564.425781 181.289062 559.566406 187.828125 553.117188 191.660156 C 554.40625 188.921875 555.25 185.242188 555.589844 180.722656 Z M 532.21875 187.371094 C 534.882812 191.019531 537.53125 193.703125 540.066406 195.351562 C 532.597656 195.464844 525.0625 192.472656 518.449219 187.140625 C 522.902344 187.738281 527.53125 187.816406 532.21875 187.371094 Z M 504.953125 170.421875 C 510.1875 170.527344 516.070312 170.058594 522.296875 169.050781 C 524.734375 174.898438 527.445312 180.171875 530.308594 184.578125 C 524.726562 184.953125 519.339844 184.542969 514.367188 183.429688 C 510.785156 179.777344 507.582031 175.390625 504.953125 170.421875 Z M 501.578125 170.269531 C 503.675781 174.515625 506.195312 178.429688 509.066406 181.917969 C 501.015625 179.101562 494.484375 174.25 490.652344 167.8125 C 493.386719 169.097656 497.066406 169.933594 501.578125 170.269531 Z M 494.933594 146.964844 C 491.277344 149.628906 488.59375 152.277344 486.945312 154.8125 C 486.808594 147.320312 489.804688 139.757812 495.15625 133.117188 C 494.554688 137.597656 494.480469 142.25 494.933594 146.964844 Z M 511.804688 119.65625 C 511.699219 124.914062 512.171875 130.820312 513.183594 137.074219 C 507.359375 139.503906 502.113281 142.207031 497.722656 145.054688 C 497.335938 139.445312 497.746094 134.03125 498.867188 129.039062 C 502.503906 125.472656 506.863281 122.28125 511.804688 119.65625 Z M 511.957031 116.277344 C 507.738281 118.371094 503.847656 120.878906 500.378906 123.734375 C 503.1875 115.710938 508.011719 109.199219 514.417969 105.359375 C 513.132812 108.097656 512.296875 111.773438 511.957031 116.277344 Z M 535.320312 109.605469 C 532.648438 105.945312 529.992188 103.261719 527.453125 101.617188 C 534.957031 101.472656 542.53125 104.464844 549.175781 109.828125 C 544.695312 109.222656 540.039062 109.148438 535.320312 109.605469 Z M 562.675781 126.542969 C 557.417969 126.4375 551.507812 126.914062 545.25 127.925781 C 542.808594 122.074219 540.09375 116.800781 537.230469 112.390625 C 542.84375 112.003906 548.261719 112.417969 553.257812 113.535156 C 556.839844 117.191406 560.042969 121.574219 562.675781 126.542969 Z M 566.050781 126.695312 C 563.949219 122.449219 561.433594 118.535156 558.5625 115.046875 C 566.609375 117.867188 573.140625 122.714844 576.976562 129.152344 C 574.238281 127.867188 570.5625 127.03125 566.050781 126.695312 Z M 570.804688 139.460938 L 579.980469 136.847656 C 579.808594 139.71875 577.136719 143.296875 572.335938 147.027344 C 571.972656 144.507812 571.464844 141.980469 570.804688 139.460938 Z M 551.109375 145.074219 L 567.988281 140.265625 C 568.753906 143.191406 569.296875 146.109375 569.632812 148.988281 C 565.492188 151.804688 560.203125 154.652344 553.914062 157.292969 C 553.183594 153.3125 552.246094 149.214844 551.109375 145.074219 Z M 500.441406 159.515625 L 517.242188 154.726562 C 518.460938 158.839844 519.820312 162.816406 521.296875 166.578125 C 514.59375 167.640625 508.625 168.007812 503.644531 167.796875 C 502.410156 165.171875 501.335938 162.40625 500.441406 159.515625 Z M 497.625 160.320312 C 498.390625 162.808594 499.289062 165.222656 500.3125 167.554688 C 494.265625 166.917969 490.109375 165.285156 488.449219 162.933594 Z M 496.820312 157.503906 L 487.644531 160.121094 C 487.816406 157.246094 490.492188 153.667969 495.292969 149.9375 C 495.652344 152.457031 496.160156 154.984375 496.820312 157.503906 Z M 516.441406 151.910156 L 499.636719 156.703125 C 498.875 153.773438 498.328125 150.855469 497.996094 147.976562 C 502.117188 145.171875 507.382812 142.335938 513.636719 139.703125 C 514.367188 143.683594 515.304688 147.777344 516.441406 151.910156 Z M 567.1875 137.449219 L 550.304688 142.261719 C 549.089844 138.144531 547.726562 134.167969 546.246094 130.398438 C 552.984375 129.328125 558.980469 128.957031 563.984375 129.167969 C 565.214844 131.792969 566.292969 134.558594 567.1875 137.449219 Z M 570.003906 136.644531 C 569.234375 134.15625 568.335938 131.742188 567.3125 129.410156 C 573.359375 130.050781 577.519531 131.679688 579.179688 134.03125 Z M 529.714844 134.097656 C 534.589844 132.707031 539.246094 131.632812 543.625 130.84375 C 545.105469 134.582031 546.503906 138.632812 547.789062 142.976562 L 518.960938 151.195312 C 517.757812 146.832031 516.8125 142.648438 516.101562 138.695312 C 520.257812 137.050781 524.808594 135.496094 529.714844 134.097656 Z M 524.183594 114.691406 C 527.578125 113.722656 530.96875 113.054688 534.304688 112.664062 C 537.125 116.804688 539.976562 122.09375 542.621094 128.382812 C 538.1875 129.195312 533.609375 130.265625 528.996094 131.578125 C 524.351562 132.902344 519.875 134.417969 515.65625 136.078125 C 514.589844 129.339844 514.222656 123.34375 514.4375 118.34375 C 517.5 116.898438 520.757812 115.667969 524.183594 114.691406 Z M 519.519531 102.996094 C 519.921875 102.859375 520.328125 102.730469 520.738281 102.613281 C 521.121094 102.503906 521.5 102.40625 521.882812 102.316406 C 524.804688 102.335938 528.492188 105.023438 532.339844 109.964844 C 529.355469 110.390625 526.359375 111.027344 523.378906 111.875 C 520.371094 112.734375 517.464844 113.785156 514.679688 115.007812 C 515.339844 108.789062 517.054688 104.5625 519.519531 102.996094 Z M 537.914062 162.867188 C 533.007812 164.265625 528.324219 165.34375 523.921875 166.136719 C 522.445312 162.402344 521.042969 158.351562 519.761719 154.007812 L 548.589844 145.792969 C 549.792969 150.160156 550.738281 154.34375 551.449219 158.300781 C 547.3125 159.933594 542.789062 161.476562 537.914062 162.867188 Z M 543.445312 182.273438 C 540.019531 183.25 536.601562 183.921875 533.238281 184.308594 C 530.417969 180.171875 527.570312 174.882812 524.925781 168.597656 C 529.382812 167.78125 533.988281 166.710938 538.628906 165.386719 C 543.246094 164.070312 547.695312 162.566406 551.894531 160.917969 C 552.960938 167.65625 553.328125 173.65625 553.113281 178.660156 C 550.070312 180.085938 546.839844 181.304688 543.445312 182.273438 Z M 548.015625 194 C 547.640625 194.125 547.265625 194.246094 546.886719 194.351562 C 546.476562 194.46875 546.0625 194.574219 545.648438 194.667969 C 542.726562 194.640625 539.042969 191.953125 535.203125 187.015625 C 538.214844 186.585938 541.238281 185.945312 544.246094 185.089844 C 547.226562 184.242188 550.109375 183.199219 552.867188 181.992188 C 552.203125 188.21875 550.484375 192.445312 548.015625 194 Z M 519.9375 99.796875 C 493.089844 107.449219 477.476562 135.511719 485.128906 162.359375 C 492.777344 189.203125 520.84375 204.820312 547.6875 197.167969 C 574.535156 189.519531 590.152344 161.453125 582.5 134.605469 C 574.847656 107.761719 546.78125 92.144531 519.9375 99.796875 " fill-opacity="1" fill-rule="nonzero"/></g></g></g><g clip-path="url(#88232c148f)"><g clip-path="url(#e0936fa084)"><path fill="#050a30" d="M 506.320312 136.238281 L 552.625 123.042969 C 561.746094 120.441406 571.265625 125.789062 573.890625 134.992188 L 574.46875 137.019531 C 577.089844 146.21875 571.820312 155.785156 562.695312 158.382812 L 516.394531 171.582031 C 507.273438 174.179688 497.75 168.832031 495.128906 159.628906 L 494.550781 157.601562 C 491.929688 148.402344 497.199219 138.839844 506.320312 136.238281 " fill-opacity="1" fill-rule="nonzero"/></g></g><g clip-path="url(#0b5b5264b7)"><g clip-path="url(#d25be49cfe)"><g clip-path="url(#1ce2c09e5e)"><path fill="#ffffff" d="M 554.234375 155.460938 L 541.492188 159.089844 C 534.457031 161.097656 527.128906 157.019531 525.125 149.984375 C 524.808594 148.878906 524.695312 147.769531 524.667969 146.671875 L 530.585938 144.984375 C 530.867188 144.902344 531.148438 144.921875 531.433594 144.917969 C 531.195312 145.960938 531.179688 147.070312 531.496094 148.167969 C 532.496094 151.679688 536.167969 153.722656 539.679688 152.722656 L 552.417969 149.089844 C 555.929688 148.089844 557.972656 144.417969 556.972656 140.90625 C 555.972656 137.394531 552.300781 135.351562 548.785156 136.351562 L 544.253906 137.644531 C 542.40625 135.414062 539.996094 133.75 537.320312 132.734375 L 546.972656 129.984375 C 554.007812 127.976562 561.335938 132.054688 563.34375 139.09375 C 565.347656 146.125 561.269531 153.457031 554.234375 155.460938 Z M 525.101562 156.878906 L 520.570312 158.171875 C 517.058594 159.171875 513.386719 157.125 512.382812 153.617188 C 511.382812 150.101562 513.425781 146.429688 516.941406 145.429688 L 529.679688 141.800781 C 533.191406 140.796875 536.863281 142.839844 537.863281 146.351562 C 538.175781 147.449219 538.160156 148.554688 537.929688 149.601562 C 538.210938 149.597656 538.488281 149.617188 538.769531 149.539062 L 544.691406 147.851562 C 544.664062 146.753906 544.546875 145.644531 544.230469 144.539062 C 542.226562 137.503906 534.898438 133.425781 527.863281 135.429688 L 515.125 139.058594 C 508.089844 141.066406 504.011719 148.394531 506.015625 155.429688 C 508.019531 162.464844 515.351562 166.542969 522.386719 164.539062 L 532.039062 161.789062 C 529.359375 160.773438 526.953125 159.109375 525.101562 156.878906 Z M 525.101562 156.878906 " fill-opacity="1" fill-rule="nonzero"/></g></g></g></svg>