<svg width="21" height="20" viewBox="0 0 21 20" fill="none" xmlns="http://www.w3.org/2000/svg">
<path d="M7.75 2C7.88261 2 8.00979 2.05268 8.10355 2.14645C8.19732 2.24021 8.25 2.36739 8.25 2.5V4.5C8.25 4.63261 8.19732 4.75979 8.10355 4.85355C8.00979 4.94732 7.88261 5 7.75 5C7.61739 5 7.49021 4.94732 7.39645 4.85355C7.30268 4.75979 7.25 4.63261 7.25 4.5V2.5C7.25 2.36739 7.30268 2.24021 7.39645 2.14645C7.49021 2.05268 7.61739 2 7.75 2ZM3.86 3.61C3.90645 3.56344 3.96162 3.52649 4.02237 3.50129C4.08311 3.47608 4.14823 3.46311 4.214 3.46311C4.27977 3.46311 4.34489 3.47608 4.40563 3.50129C4.46638 3.52649 4.52155 3.56344 4.568 3.61L5.982 5.025C6.02975 5.07112 6.06785 5.1263 6.09405 5.1873C6.12026 5.2483 6.13405 5.31391 6.13463 5.3803C6.1352 5.44669 6.12255 5.51253 6.09741 5.57398C6.07227 5.63543 6.03514 5.69125 5.9882 5.7382C5.94125 5.78514 5.88543 5.82227 5.82398 5.84741C5.76253 5.87255 5.69669 5.8852 5.6303 5.88463C5.56391 5.88405 5.4983 5.87026 5.4373 5.84405C5.3763 5.81785 5.32112 5.77975 5.275 5.732L3.861 4.318C3.76726 4.22424 3.71461 4.09708 3.71461 3.9645C3.71461 3.83192 3.76726 3.70476 3.861 3.611L3.86 3.61ZM11.64 3.61C11.6866 3.65645 11.7235 3.71162 11.7487 3.77237C11.7739 3.83311 11.7869 3.89823 11.7869 3.964C11.7869 4.02977 11.7739 4.09489 11.7487 4.15563C11.7235 4.21638 11.6866 4.27155 11.64 4.318L10.224 5.732C10.1779 5.77975 10.1227 5.81785 10.0617 5.84405C10.0007 5.87026 9.93509 5.88405 9.8687 5.88463C9.80231 5.8852 9.73647 5.87255 9.67502 5.84741C9.61357 5.82227 9.55775 5.78514 9.5108 5.7382C9.46386 5.69125 9.42673 5.63543 9.40159 5.57398C9.37645 5.51253 9.3638 5.44669 9.36438 5.3803C9.36495 5.31391 9.37874 5.2483 9.40495 5.1873C9.43115 5.1263 9.46924 5.07112 9.517 5.025L10.931 3.611C11.0248 3.51726 11.1519 3.46461 11.2845 3.46461C11.4171 3.46461 11.5442 3.51726 11.638 3.611L11.64 3.61ZM2.25 7.5C2.25 7.36739 2.30268 7.24021 2.39645 7.14645C2.49021 7.05268 2.61739 7 2.75 7H4.75C4.88261 7 5.00979 7.05268 5.10355 7.14645C5.19732 7.24021 5.25 7.36739 5.25 7.5C5.25 7.63261 5.19732 7.75979 5.10355 7.85355C5.00979 7.94732 4.88261 8 4.75 8H2.75C2.61739 8 2.49021 7.94732 2.39645 7.85355C2.30268 7.75979 2.25 7.63261 2.25 7.5ZM7.75 8.032V17.292C7.74982 17.391 7.77905 17.4879 7.83398 17.5703C7.88891 17.6526 7.96706 17.7169 8.05854 17.7548C8.15001 17.7927 8.25068 17.8026 8.34779 17.7832C8.4449 17.7639 8.53407 17.7161 8.604 17.646L11.164 15.086C11.539 14.7109 12.0476 14.5001 12.578 14.5H15.81C15.9138 14.4999 16.015 14.4675 16.0995 14.4074C16.1841 14.3472 16.2478 14.2622 16.2819 14.1641C16.316 14.0661 16.3187 13.9599 16.2897 13.8602C16.2607 13.7606 16.2014 13.6724 16.12 13.608L8.56 7.639C8.48626 7.58073 8.39758 7.54442 8.30415 7.53424C8.21071 7.52406 8.1163 7.54043 8.03174 7.58145C7.94718 7.62248 7.8759 7.68651 7.82606 7.7662C7.77623 7.84589 7.74987 7.93801 7.75 8.032Z" fill="black"/>
</svg>
