<svg width="21" height="20" viewBox="0 0 21 20" fill="none" xmlns="http://www.w3.org/2000/svg">
<path d="M20.1792 13.335C19.4891 15.2844 18.2118 16.9721 16.5231 18.1657C14.8343 19.3592 12.8172 20.0001 10.7492 20C6.39619 20 2.69219 17.218 1.31919 13.335C4.15378 15.0824 7.41928 16.0053 10.7492 16C14.2072 16 17.4372 15.025 20.1792 13.335ZM19.8752 5.905C20.523 7.34694 20.8185 8.92232 20.7372 10.501C17.9038 12.7713 14.3799 14.0058 10.7492 14C6.97119 14 3.49919 12.69 0.761192 10.5C0.680041 8.92165 0.975507 7.34663 1.62319 5.905C4.23966 7.91669 7.44878 9.00503 10.7492 9C14.1832 9 17.3472 7.846 19.8752 5.905ZM10.7492 3.20571e-06C12.3347 -0.00102277 13.8977 0.37536 15.309 1.09803C16.7203 1.82071 17.9393 2.86892 18.8652 4.156C16.563 6.00119 13.6996 7.00459 10.7492 7C7.67919 7 4.85719 5.936 2.63319 4.156C3.55895 2.86874 4.7779 1.8204 6.1892 1.0977C7.60051 0.375009 9.16361 -0.00126709 10.7492 3.20571e-06Z" fill="black"/>
</svg>
