<svg width="21" height="20" viewBox="0 0 21 20" fill="none" xmlns="http://www.w3.org/2000/svg">
<g clip-path="url(#clip0_31_524)">
<path d="M13.0007 5.8335H15.5007C16.0478 5.8335 16.5896 5.94127 17.0952 6.15066C17.6007 6.36006 18.06 6.66697 18.4469 7.05388C18.8338 7.4408 19.1408 7.90013 19.3502 8.40565C19.5595 8.91117 19.6673 9.45299 19.6673 10.0002C19.6673 10.5473 19.5595 11.0892 19.3502 11.5947C19.1408 12.1002 18.8338 12.5595 18.4469 12.9464C18.06 13.3334 17.6007 13.6403 17.0952 13.8497C16.5896 14.0591 16.0478 14.1668 15.5007 14.1668H13.0007M8.00065 14.1668H5.50065C4.95348 14.1668 4.41166 14.0591 3.90614 13.8497C3.40061 13.6403 2.94128 13.3334 2.55437 12.9464C1.77297 12.165 1.33398 11.1052 1.33398 10.0002C1.33398 8.89509 1.77297 7.83529 2.55437 7.05388C3.33577 6.27248 4.39558 5.8335 5.50065 5.8335H8.00065" stroke="#3B3A40" stroke-width="1.5" stroke-linecap="round" stroke-linejoin="round"/>
<path d="M7.16602 10H13.8327" stroke="#3B3A40" stroke-width="1.5" stroke-linecap="round" stroke-linejoin="round"/>
</g>
<defs>
<clipPath id="clip0_31_524">
<rect width="20" height="20" fill="white" transform="translate(0.5)"/>
</clipPath>
</defs>
</svg>
