<svg width="19" height="20" viewBox="0 0 19 20" fill="none" xmlns="http://www.w3.org/2000/svg">
<path d="M17.4909 2.39229C15.4808 0.382096 12.2085 0.382096 10.1983 2.39229L7.59611 4.99448C7.44844 5.1441 7.31183 5.30154 7.18627 5.46352C8.00341 5.25764 8.8551 5.22859 9.68437 5.3783C9.85221 5.40758 10.0194 5.44466 10.1853 5.48889L10.1911 5.52923L11.7661 3.95425C12.0393 3.68045 12.3637 3.46321 12.721 3.315C13.0782 3.16678 13.4611 3.09048 13.8479 3.09048C14.2346 3.09048 14.6176 3.16678 14.9748 3.315C15.332 3.46321 15.6565 3.68045 15.9296 3.95425C17.0746 5.10572 17.0811 6.97279 15.9296 8.11776L13.3274 10.7199C12.833 11.2144 12.202 11.4811 11.5579 11.5526C10.7057 11.6437 9.81448 11.377 9.16393 10.7199C8.73924 10.2916 8.45747 9.74238 8.35726 9.14757C7.89421 9.20428 7.46287 9.4124 7.13032 9.73957L6.42383 10.4467C6.68024 11.1359 7.08232 11.7616 7.60262 12.2813C8.34694 13.027 9.30349 13.5246 10.3414 13.706C11.1596 13.8486 12 13.793 12.7923 13.544C13.5847 13.295 14.3058 12.8598 14.8953 12.2748L17.4974 9.67256C19.5011 7.67538 19.5011 4.40313 17.4909 2.39294V2.39229Z" fill="black"/>
<path d="M12.2872 14.8962C12.4375 14.7443 12.578 14.583 12.7081 14.4135C11.8888 14.62 11.0352 14.6517 10.2029 14.5066H10.2022C10.0205 14.4746 9.84028 14.4343 9.66228 14.3856L8.11723 15.9306C7.84409 16.2044 7.51961 16.4216 7.1624 16.5699C6.80517 16.7181 6.42222 16.7944 6.03548 16.7944C5.64873 16.7944 5.26578 16.7181 4.90856 16.5699C4.55134 16.4216 4.22686 16.2044 3.95372 15.9306C3.67992 15.6575 3.46269 15.333 3.31447 14.9758C3.16625 14.6186 3.08995 14.2356 3.08995 13.8489C3.08995 13.4621 3.16625 13.0792 3.31447 12.7219C3.46269 12.3647 3.67992 12.0402 3.95372 11.7671L6.55591 9.16491C7.05033 8.67049 7.68136 8.40377 8.3254 8.33221C9.17762 8.24113 10.0689 8.50786 10.7194 9.16491C11.1445 9.5929 11.4267 10.1419 11.5274 10.7366C11.9902 10.6797 12.4213 10.4716 12.7537 10.1446L13.4602 9.43749C13.2036 8.74823 12.8013 8.12247 12.2807 7.60294C11.5364 6.85717 10.5799 6.35958 9.54193 6.17825C8.52835 5.99567 7.48329 6.12262 6.5429 6.54255C5.98343 6.78976 5.45649 7.14106 4.9946 7.60294L2.39241 10.2051C0.382218 12.2153 0.382218 15.4876 2.39241 17.4978C4.4026 19.508 7.67486 19.508 9.68505 17.4978L12.2872 14.8956V14.8962Z" fill="black"/>
</svg>
