<svg width="114" height="32" viewBox="0 0 114 32" fill="none" xmlns="http://www.w3.org/2000/svg">
<path d="M0.0227273 25V1.72727H9.20455C10.9697 1.72727 12.4735 2.06439 13.7159 2.73864C14.9583 3.4053 15.9053 4.33333 16.5568 5.52273C17.2159 6.70454 17.5455 8.06818 17.5455 9.61364C17.5455 11.1591 17.2121 12.5227 16.5455 13.7045C15.8788 14.8864 14.9129 15.8068 13.6477 16.4659C12.3902 17.125 10.8674 17.4545 9.07955 17.4545H3.22727V13.5114H8.28409C9.23106 13.5114 10.0114 13.3485 10.625 13.0227C11.2462 12.6894 11.7083 12.2311 12.0114 11.6477C12.322 11.0568 12.4773 10.3788 12.4773 9.61364C12.4773 8.84091 12.322 8.16667 12.0114 7.59091C11.7083 7.00757 11.2462 6.55682 10.625 6.23864C10.0038 5.91288 9.21591 5.75 8.26136 5.75H4.94318V25H0.0227273ZM20.6506 25V7.54545H25.4915V25H20.6506ZM23.0824 5.29545C22.3627 5.29545 21.7453 5.05682 21.2301 4.57954C20.7225 4.0947 20.4688 3.51515 20.4688 2.84091C20.4688 2.17424 20.7225 1.60227 21.2301 1.125C21.7453 0.640151 22.3627 0.397726 23.0824 0.397726C23.8021 0.397726 24.4157 0.640151 24.9233 1.125C25.4384 1.60227 25.696 2.17424 25.696 2.84091C25.696 3.51515 25.4384 4.0947 24.9233 4.57954C24.4157 5.05682 23.8021 5.29545 23.0824 5.29545ZM34.2102 14.9091V25H29.3693V7.54545H33.983V10.625H34.1875C34.5739 9.60985 35.2216 8.80682 36.1307 8.21591C37.0398 7.61742 38.142 7.31818 39.4375 7.31818C40.6496 7.31818 41.7064 7.58333 42.608 8.11364C43.5095 8.64394 44.2102 9.40151 44.7102 10.3864C45.2102 11.3636 45.4602 12.5303 45.4602 13.8864V25H40.6193V14.75C40.6269 13.6818 40.3542 12.8485 39.8011 12.25C39.2481 11.6439 38.4867 11.3409 37.517 11.3409C36.8655 11.3409 36.2898 11.4811 35.7898 11.7614C35.2973 12.0417 34.911 12.4508 34.6307 12.9886C34.358 13.5189 34.2178 14.1591 34.2102 14.9091ZM57.1392 31.9091C55.571 31.9091 54.2263 31.6932 53.1051 31.2614C51.9915 30.8371 51.1051 30.2576 50.446 29.5227C49.7869 28.7879 49.3589 27.9621 49.1619 27.0455L53.6392 26.4432C53.7756 26.7917 53.9915 27.1174 54.2869 27.4205C54.5824 27.7235 54.9725 27.9659 55.4574 28.1477C55.9498 28.3371 56.5483 28.4318 57.2528 28.4318C58.3059 28.4318 59.1733 28.1742 59.8551 27.6591C60.5445 27.1515 60.8892 26.2992 60.8892 25.1023V21.9091H60.6847C60.4725 22.3939 60.1544 22.8523 59.7301 23.2841C59.3059 23.7159 58.7604 24.0682 58.0938 24.3409C57.4271 24.6136 56.6316 24.75 55.7074 24.75C54.3968 24.75 53.2036 24.447 52.1278 23.8409C51.0597 23.2273 50.2074 22.2917 49.571 21.0341C48.9422 19.7689 48.6278 18.1705 48.6278 16.2386C48.6278 14.2614 48.9498 12.6098 49.5938 11.2841C50.2377 9.95833 51.0938 8.96591 52.1619 8.30682C53.2377 7.64773 54.4157 7.31818 55.696 7.31818C56.6733 7.31818 57.4915 7.48485 58.1506 7.81818C58.8097 8.14394 59.34 8.55303 59.7415 9.04545C60.1506 9.5303 60.465 10.0076 60.6847 10.4773H60.8665V7.54545H65.6733V25.1705C65.6733 26.6553 65.3097 27.8977 64.5824 28.8977C63.8551 29.8977 62.8475 30.6477 61.5597 31.1477C60.2794 31.6553 58.8059 31.9091 57.1392 31.9091ZM57.2415 21.1136C58.0218 21.1136 58.6809 20.9205 59.2188 20.5341C59.7642 20.1402 60.1809 19.5795 60.4688 18.8523C60.7642 18.1174 60.9119 17.2386 60.9119 16.2159C60.9119 15.1932 60.768 14.3068 60.4801 13.5568C60.1922 12.7992 59.7756 12.2121 59.2301 11.7955C58.6847 11.3788 58.0218 11.1705 57.2415 11.1705C56.446 11.1705 55.7756 11.3864 55.2301 11.8182C54.6847 12.2424 54.2718 12.8333 53.9915 13.5909C53.7112 14.3485 53.571 15.2235 53.571 16.2159C53.571 17.2235 53.7112 18.0947 53.9915 18.8295C54.2794 19.5568 54.6922 20.1212 55.2301 20.5227C55.7756 20.9167 56.446 21.1136 57.2415 21.1136ZM74.5028 25.3295C73.3892 25.3295 72.3968 25.1364 71.5256 24.75C70.6544 24.3561 69.965 23.7765 69.4574 23.0114C68.9574 22.2386 68.7074 21.2765 68.7074 20.125C68.7074 19.1553 68.8854 18.3409 69.2415 17.6818C69.5975 17.0227 70.0824 16.4924 70.696 16.0909C71.3097 15.6894 72.0066 15.3864 72.7869 15.1818C73.5748 14.9773 74.4006 14.8333 75.2642 14.75C76.2794 14.6439 77.0975 14.5455 77.7188 14.4545C78.34 14.3561 78.7907 14.2121 79.071 14.0227C79.3513 13.8333 79.4915 13.553 79.4915 13.1818V13.1136C79.4915 12.3939 79.2642 11.8371 78.8097 11.4432C78.3627 11.0492 77.7263 10.8523 76.9006 10.8523C76.0294 10.8523 75.3362 11.0455 74.821 11.4318C74.3059 11.8106 73.965 12.2879 73.7983 12.8636L69.321 12.5C69.5483 11.4394 69.9953 10.5227 70.6619 9.75C71.3286 8.9697 72.1884 8.37121 73.2415 7.95454C74.3021 7.5303 75.5294 7.31818 76.9233 7.31818C77.893 7.31818 78.821 7.43182 79.7074 7.65909C80.6013 7.88636 81.393 8.23864 82.0824 8.71591C82.7794 9.19318 83.3286 9.80682 83.7301 10.5568C84.1316 11.2992 84.3324 12.1894 84.3324 13.2273V25H79.7415V22.5795H79.6051C79.3248 23.125 78.9498 23.6061 78.4801 24.0227C78.0104 24.4318 77.446 24.7538 76.7869 24.9886C76.1278 25.2159 75.3665 25.3295 74.5028 25.3295ZM75.8892 21.9886C76.6013 21.9886 77.2301 21.8485 77.7756 21.5682C78.321 21.2803 78.7491 20.8939 79.0597 20.4091C79.3703 19.9242 79.5256 19.375 79.5256 18.7614V16.9091C79.3741 17.0076 79.1657 17.0985 78.9006 17.1818C78.643 17.2576 78.3513 17.3295 78.0256 17.3977C77.6998 17.4583 77.3741 17.5152 77.0483 17.5682C76.7225 17.6136 76.4271 17.6553 76.1619 17.6932C75.5938 17.7765 75.0975 17.9091 74.6733 18.0909C74.2491 18.2727 73.9195 18.5189 73.6847 18.8295C73.4498 19.1326 73.3324 19.5114 73.3324 19.9659C73.3324 20.625 73.571 21.1288 74.0483 21.4773C74.5331 21.8182 75.1468 21.9886 75.8892 21.9886ZM92.929 1.72727V25H88.0881V1.72727H92.929ZM104.693 25.3409C102.928 25.3409 101.402 24.9659 100.114 24.2159C98.8333 23.4583 97.8447 22.4053 97.1477 21.0568C96.4508 19.7008 96.1023 18.1288 96.1023 16.3409C96.1023 14.5379 96.4508 12.9621 97.1477 11.6136C97.8447 10.2576 98.8333 9.20454 100.114 8.45454C101.402 7.69697 102.928 7.31818 104.693 7.31818C106.458 7.31818 107.981 7.69697 109.261 8.45454C110.549 9.20454 111.542 10.2576 112.239 11.6136C112.936 12.9621 113.284 14.5379 113.284 16.3409C113.284 18.1288 112.936 19.7008 112.239 21.0568C111.542 22.4053 110.549 23.4583 109.261 24.2159C107.981 24.9659 106.458 25.3409 104.693 25.3409ZM104.716 21.5909C105.519 21.5909 106.189 21.3636 106.727 20.9091C107.265 20.447 107.67 19.8182 107.943 19.0227C108.223 18.2273 108.364 17.322 108.364 16.3068C108.364 15.2917 108.223 14.3864 107.943 13.5909C107.67 12.7955 107.265 12.1667 106.727 11.7045C106.189 11.2424 105.519 11.0114 104.716 11.0114C103.905 11.0114 103.223 11.2424 102.67 11.7045C102.125 12.1667 101.712 12.7955 101.432 13.5909C101.159 14.3864 101.023 15.2917 101.023 16.3068C101.023 17.322 101.159 18.2273 101.432 19.0227C101.712 19.8182 102.125 20.447 102.67 20.9091C103.223 21.3636 103.905 21.5909 104.716 21.5909Z" fill="#3B3A40"/>
</svg>
