<svg width="20" height="20" viewBox="0 0 20 20" fill="none" xmlns="http://www.w3.org/2000/svg">
<path d="M12.5007 5.8335H15.0007C15.5478 5.8335 16.0896 5.94127 16.5952 6.15066C17.1007 6.36006 17.56 6.66697 17.9469 7.05388C18.3338 7.4408 18.6408 7.90013 18.8502 8.40565C19.0595 8.91117 19.1673 9.45299 19.1673 10.0002C19.1673 10.5473 19.0595 11.0892 18.8502 11.5947C18.6408 12.1002 18.3338 12.5595 17.9469 12.9464C17.56 13.3334 17.1007 13.6403 16.5952 13.8497C16.0896 14.0591 15.5478 14.1668 15.0007 14.1668H12.5007M7.50065 14.1668H5.00065C4.45348 14.1668 3.91166 14.0591 3.40614 13.8497C2.90061 13.6403 2.44128 13.3334 2.05437 12.9464C1.27297 12.165 0.833984 11.1052 0.833984 10.0002C0.833984 8.89509 1.27297 7.83529 2.05437 7.05388C2.83577 6.27248 3.89558 5.8335 5.00065 5.8335H7.50065" stroke="#3B3A40" stroke-width="1.5" stroke-linecap="round" stroke-linejoin="round"/>
<path d="M6.66602 10H13.3327" stroke="#3B3A40" stroke-width="1.5" stroke-linecap="round" stroke-linejoin="round"/>
</svg>
